<svg id="Layer_1" data-name="Layer 1" xmlns="http://www.w3.org/2000/svg" viewBox="0 0 144 61.2"><title>2masslogo</title><path d="M25.19,40.76a75.39,75.39,0,0,0-2.64,11.61q-2.44-.24-6.69-.24t-7.32.24L8.41,51q2.17-3.49,4.33-7,2.48-4.09,4.1-7.34a31.68,31.68,0,0,0,3.43-14.08,20.19,20.19,0,0,0-.79-6.5q-1-2.83-3.54-2.83T12,16a14.34,14.34,0,0,0-1.26,6.5,16.61,16.61,0,0,0,3.66,11,3.84,3.84,0,0,0-.79,1.93,16.86,16.86,0,0,1-3.09-5.54A22.81,22.81,0,0,1,9.59,23q0-5.9,2.07-9.24a6.58,6.58,0,0,1,5.93-3.34q6.93,0,6.93,11.85a20.83,20.83,0,0,1-2,8.85,52.64,52.64,0,0,1-4.77,7.82Q15.58,42,13.41,45.52a1.25,1.25,0,0,0-.24.48q0,.54,3.82.54t5-1.14q1.22-1.14,2.13-5.48A1.89,1.89,0,0,0,25.19,40.76Z"/><path d="M36.49,27.7H36.1V52.38H26.37V10.25H41L42.16,27h.35l1.34-16.73H57.64V52.38H46.69V27.7h-.32l-2,24.67H38.42Z"/><path d="M70.75,52.38H59.06V18.68c0-7.7,2.44-8.43,8-8.43h9c5.51,0,8,.72,8,8.43v33.7H72.37V40.88H70.75Zm0-21.85h1.62V21.87c0-1-.2-1.44-.79-1.44s-.83.54-.83,1.44Z"/><path d="M96.86,38.78v2.11c0,1.63.08,2.65.79,2.65s.83-.6.83-2.65v-.66c0-2.59-.51-3.37-2.44-3.37H91c-4.77,0-5.71-2.53-5.71-9V22.11c0-8.91.95-11.86,7.72-11.86h10.51c5.63,0,6.26,3.37,6.26,10.89V24H98.48V21.75c0-1.38-.12-2.65-.79-2.65s-.83.9-.83,2.41v1.14c0,2.11.39,3.25,2.91,3.25h4.92c4,0,5.2,2.83,5.2,8.25v5.3c0,10-1,12.94-7.68,12.94H91.67c-5.63,0-6.26-3.31-6.26-10.83V38.78Z"/><path d="M122.66,38.78v2.11c0,1.63.08,2.65.79,2.65s.83-.6.83-2.65v-.66c0-2.59-.51-3.37-2.44-3.37h-5c-4.77,0-5.71-2.53-5.71-9V22.11c0-8.91.95-11.86,7.72-11.86h10.51c5.63,0,6.26,3.37,6.26,10.89V24h-11.3V21.75c0-1.38-.12-2.65-.79-2.65s-.83.9-.83,2.41v1.14c0,2.11.39,3.25,2.91,3.25h4.92c4,0,5.2,2.83,5.2,8.25v5.3c0,10-1,12.94-7.68,12.94H117.46c-5.63,0-6.26-3.31-6.26-10.83V38.78Z"/></svg>