<?xml version="1.0" encoding="utf-8"?>
<!-- Generator: Adobe Illustrator 21.0.2, SVG Export Plug-In . SVG Version: 6.00 Build 0)  -->
<svg version="1.1" id="Layer_1" xmlns="http://www.w3.org/2000/svg" xmlns:xlink="http://www.w3.org/1999/xlink" x="0px" y="0px"
	 viewBox="0 0 53.6 14.4" style="enable-background:new 0 0 53.6 14.4;" xml:space="preserve">
<path d="M52.8,6.7c-2.8,3.5-6.4,7-7.3,6.5c-0.1-0.1-0.9-0.7,0.7-6.1c1.2-4,1.1-6.2-0.1-7c-2.4-1.4-8.5,4.2-10.6,6.6
	c-0.2,0.2-0.6,0.7-0.6,0.7c-2.7,3.3-5.9,6.3-6.7,5.8c-0.1-0.1-0.9-0.7,0.7-6.1c1.2-4,1.1-6.2-0.1-7c-2.4-1.4-8.3,4.2-10.6,6.5
	l-0.7,0.8c-2.7,3.2-5.8,6.2-6.7,5.7c-0.1-0.1-0.9-0.7,0.7-6.1c1.2-4,1.1-6.2-0.1-7C8.5-1.2,1.4,6.1,0,7.6l0.7,0.7
	c3.3-3.5,8.5-7.9,10-7.1c0.4,0.2,1,1.2-0.3,5.8c-1.3,4.4-1.4,6.6-0.2,7.2c0.2,0.1,0.4,0.1,0.6,0.1c2.2,0,5.9-4.5,7.6-6.5
	c3.1-3.5,8.2-7.5,9.7-6.7c0.4,0.2,1,1.2-0.3,5.8c-1.3,4.4-1.4,6.6-0.2,7.2c0.2,0.1,0.4,0.1,0.6,0.1c2.3,0,6.5-5.2,8-6.9
	c3.1-3.5,8-7.2,9.4-6.4c0.4,0.2,1,1.2-0.3,5.8c-1.3,4.4-1.4,6.6-0.2,7.2c0.2,0.1,0.4,0.1,0.6,0.1c2.3,0,6.6-5.2,8-6.9L52.8,6.7z"/>
</svg>
